:SAMPLES-PER-SECOND 30
:FULLY-SPECIFIED
:DEGREES
250
root  11.4174 38.4684 8.81802 -23.0745 83.0207 -18.0505
RightUpLeg  8.62875 -18.0496 1.20433
RightLeg  23.7319 -0.936806 0.304136
RightFoot  -24.4764 -0.795936 -5.46588
RightToes  0.00048216 0.542163 -0.142577
Spine  14.623 1.52459 20.3906
Spine1  10.8544 7.9211 -14.9078
HEad  -4.17723 52.3076 -23.4594
LeftShoulder1  9.22091 -12.8539 -49.2136
LeftArm  -8.83577 15.9523 -22.9024
LeftForeArm  23.5509 -11.7079 -5.39527
LeftHand  -0.25398 0.0180481 5.50724
RightShoulder  5.63594 10.4662 34.3896
RightArm  3.52286 19.6702 33.6305
RightForeArm  6.55885 40.2895 9.08809
RightHand  -0.86626 0.71684 -16.5187
LeftUpLeg  -16.9853 0.945781 -0.542039
LeftLeg  -3.88763 4.81736 -8.10958
LeftFoot  19.7679 5.4949 -19.9162
LeftToes  1.06248e-005 4.65855e-005 -8.185e-006
251
root  10.1514 39.0279 8.40729 -16.6221 86.0176 -11.5342
RightUpLeg  7.07514 -17.9833 0.134103
RightLeg  21.9237 -3.28992 0.117935
RightFoot  -21.1941 -0.598567 -5.25442
RightToes  0.00048216 0.542163 -0.142577
Spine  14.6075 1.10403 16.9057
Spine1  11.2172 6.5257 -12.1984
HEad  -2.81281 49.6107 -20.752
LeftShoulder1  9.21149 -13.1212 -48.3697
LeftArm  -9.75162 11.6882 -22.5087
LeftForeArm  24.8719 -9.0255 -5.63153
LeftHand  -0.25398 0.0180481 5.50724
RightShoulder  5.78505 10.6381 34.9457
RightArm  4.72061 17.5605 34.7254
RightForeArm  6.10525 35.6109 7.68895
RightHand  -0.855124 0.916337 -15.8004
LeftUpLeg  -16.3757 1.07081 -1.8672
LeftLeg  -0.786992 3.57401 -6.57177
LeftFoot  13.7563 3.17555 -14.4223
LeftToes  1.06248e-005 4.65855e-005 -8.185e-006
252
root  9.0692 39.5319 8.02714 19.802 88.3205 24.5572
RightUpLeg  5.76247 -16.4161 -1.34961
RightLeg  19.7251 -6.66309 0.434679
RightFoot  -18.2437 -0.400496 -4.60158
RightToes  0.00048216 0.542163 -0.142577
Spine  14.216 0.955178 13.2653
Spine1  10.9538 5.32394 -9.94087
HEad  -0.904971 45.9043 -17.2588
LeftShoulder1  9.05025 -13.3352 -46.8965
LeftArm  -10.1011 8.29568 -22.5544
LeftForeArm  25.4698 -8.10248 -5.64225
LeftHand  -0.25398 0.0180481 5.50724
RightShoulder  5.89481 10.7295 35.4449
RightArm  5.04908 13.6852 36.3505
RightForeArm  4.48366 30.5209 6.416
RightHand  -0.751396 0.498217 -14.8623
LeftUpLeg  -16.6754 4.16593 -4.29981
LeftLeg  5.62855 0.913282 -3.53599
LeftFoot  6.96913 1.26543 -8.24967
LeftToes  1.06248e-005 4.65855e-005 -8.185e-006
253
root  8.12864 39.8969 7.59961 83.3737 88.0785 87.2057
RightUpLeg  3.92256 -14.2541 -2.77062
RightLeg  17.9196 -9.47443 1.05989
RightFoot  -16.0236 -0.285512 -4.35885
RightToes  0.00048216 0.542163 -0.142577
Spine  13.2831 1.18759 10.7594
Spine1  10.3274 4.84397 -8.71736
HEad  0.417918 40.9608 -13.9663
LeftShoulder1  8.88044 -13.4674 -45.6223
LeftArm  -9.88503 5.62624 -22.3308
LeftForeArm  25.7769 -9.16936 -5.75494
LeftHand  -0.25398 0.0180481 5.50724
RightShoulder  6.02423 10.8224 36.0655
RightArm  4.83428 8.58898 37.6963
RightForeArm  1.13519 25.6459 5.4326
RightHand  -0.710111 0.326136 -14.4578
LeftUpLeg  -17.1685 7.10246 -5.42256
LeftLeg  11.9754 -1.76611 -0.862522
LeftFoot  2.14452 0.760576 -6.62353
LeftToes  1.06248e-005 4.65855e-005 -8.185e-006
254
root  7.24957 40.1485 7.09542 91.8203 87.1155 94.5592
RightUpLeg  1.77579 -12.955 -3.97511
RightLeg  16.6363 -10.7564 1.64947
RightFoot  -14.1461 -0.204905 -4.45274
RightToes  0.00048216 0.542163 -0.142577
Spine  12.2364 1.50752 9.60184
Spine1  9.80174 4.92166 -8.4103
HEad  0.310502 35.1321 -11.7663
LeftShoulder1  8.77716 -13.4634 -45.083
LeftArm  -8.8529 3.26779 -21.593
LeftForeArm  25.0142 -11.8606 -5.68581
LeftHand  -0.25398 0.0180481 5.50724
RightShoulder  6.19711 10.9345 36.913
RightArm  3.66827 3.36365 38.3269
RightForeArm  -1.74523 20.711 5.30359
RightHand  -0.760994 0.717017 -14.5373
LeftUpLeg  -17.1935 6.05606 -3.77128
LeftLeg  18.0243 -0.172343 0.372987
LeftFoot  -0.832689 0.606625 -6.52915
LeftToes  1.06248e-005 4.65855e-005 -8.185e-006
255
root  6.4059 40.2781 6.52819 92.1199 86.9274 94.0908
RightUpLeg  -0.283354 -12.5229 -4.67243
RightLeg  16.1856 -11.1952 1.89332
RightFoot  -12.8083 -0.139291 -4.10137
RightToes  0.00048216 0.542163 -0.142577
Spine  11.4121 1.59802 9.53982
Spine1  9.70273 5.06961 -8.46428
HEad  -1.01031 29.2136 -10.6444
LeftShoulder1  8.67973 -13.2883 -45.0457
LeftArm  -7.3974 1.01062 -20.8521
LeftForeArm  22.9287 -15.6036 -5.02241
LeftHand  -0.25398 0.0180481 5.50724
RightShoulder  6.36514 11.0209 37.7855
RightArm  -1.18253 -0.959154 38.2455
RightForeArm  1.4494 14.7435 6.89119
RightHand  -0.762184 0.791568 -14.3929
LeftUpLeg  -16.214 4.04402 -0.915055
LeftLeg  23.6317 3.25533 1.88644
LeftFoot  -3.08079 0.433132 -5.73953
LeftToes  1.06248e-005 4.65855e-005 -8.185e-006
256
root  5.58148 40.3032 5.91957 94.8981 87.3102 96.4538
RightUpLeg  -2.20615 -12.6006 -4.84419
RightLeg  16.4185 -11.2978 1.75881
RightFoot  -12.1009 -0.103956 -3.36949
RightToes  0.00048216 0.542163 -0.142577
Spine  10.7412 1.3991 9.97853
Spine1  10.0226 4.99661 -8.41961
HEad  -2.81233 23.8578 -9.88169
LeftShoulder1  8.53022 -13.0176 -44.9921
LeftArm  -7.07302 -0.792484 -20.6907
LeftForeArm  20.9416 -19.8323 -4.11062
LeftHand  -0.25398 0.0180481 5.50724
RightShoulder  6.47313 11.0654 38.3698
RightArm  -5.77703 -4.3473 37.9853
RightForeArm  8.49932 8.43462 7.71886
RightHand  -0.598709 -0.288933 -13.5787
LeftUpLeg  -14.1637 2.60761 2.15308
LeftLeg  28.0751 6.02265 3.79166
LeftFoot  -5.37298 0.291615 -4.97061
LeftToes  1.06248e-005 4.65855e-005 -8.185e-006
257
root  4.76662 40.2784 5.29109 105.246 87.8909 106.55
RightUpLeg  -4.06709 -13.2979 -4.70831
RightLeg  16.8897 -10.9339 1.40117
RightFoot  -11.4086 -0.078689 -2.88897
RightToes  0.00048216 0.542163 -0.142577
Spine  10.1797 0.977444 10.1629
Spine1  10.3175 4.5224 -7.97292
HEad  -4.59601 19.3132 -8.97771
LeftShoulder1  8.37433 -12.7914 -44.7737
LeftArm  -9.21909 -1.53998 -21.0821
LeftForeArm  20.7801 -24.2597 -4.03626
LeftHand  -0.25398 0.0180481 5.50724
RightShoulder  6.51114 11.0847 38.5632
RightArm  -6.52971 -7.58852 37.7698
RightForeArm  15.4672 3.95818 7.00246
RightHand  -0.335221 -2.30111 -12.0743
LeftUpLeg  -11.4751 2.02697 4.9715
LeftLeg  31.0663 7.00451 4.86133
LeftFoot  -7.15914 0.186991 -3.9548
LeftToes  1.06248e-005 4.65855e-005 -8.185e-006
258
root  3.96552 40.2142 4.64247 132.176 88.1722 133.22
RightUpLeg  -6.12344 -14.6509 -4.37212
RightLeg  17.7711 -10.2152 0.722438
RightFoot  -10.4517 -0.0510361 -2.54742
RightToes  0.00048216 0.542163 -0.142577
Spine  9.79164 0.325101 9.73311
Spine1  10.1693 3.47405 -6.76493
HEad  -6.13924 15.5243 -7.9342
LeftShoulder1  8.27525 -12.6688 -44.5703
LeftArm  -12.583 -1.0719 -21.6616
LeftForeArm  22.0346 -28.895 -5.05144
LeftHand  -0.25398 0.0180481 5.50724
RightShoulder  6.47812 11.0535 38.4374
RightArm  -6.75047 -11.3647 37.1567
RightForeArm  22.3877 2.22864 6.22482
RightHand  -0.132522 -4.13127 -10.1537
LeftUpLeg  -8.58678 2.08913 7.31829
LeftLeg  32.5754 6.38027 4.71401
LeftFoot  -7.21085 0.142883 -2.77829
LeftToes  1.06248e-005 4.65855e-005 -8.185e-006
259
root  3.18156 40.106 3.95146 166.263 87.7163 166.973
RightUpLeg  -8.40281 -15.8676 -3.91584
RightLeg  18.9727 -9.79485 -0.243629
RightFoot  -9.49764 -0.0323205 -1.99266
RightToes  0.00048216 0.542163 -0.142577
Spine  9.55874 -0.493223 9.03058
Spine1  9.69936 2.04753 -4.9137
HEad  -7.45196 12.4046 -6.92345
LeftShoulder1  8.20544 -12.5819 -44.4262
LeftArm  -14.5362 0.0846228 -22.314
LeftForeArm  23.2955 -33.6098 -6.12396
LeftHand  -0.25398 0.0180481 5.50724
RightShoulder  6.34221 10.8931 38.0062
RightArm  -6.81018 -15.6679 35.9862
RightForeArm  25.1257 3.08363 5.94714
RightHand  -0.0785033 -4.70125 -8.86776
LeftUpLeg  -5.30733 2.35056 9.34604
LeftLeg  31.806 4.98657 3.67356
LeftFoot  -6.06761 0.243179 -4.37329
LeftToes  1.06248e-005 4.65855e-005 -8.185e-006
260
root  2.43486 40.018 3.21004 -173.085 87.0752 -172.669
RightUpLeg  -10.2418 -16.2056 -3.52648
RightLeg  19.315 -9.84102 -0.931796
RightFoot  -8.16595 -0.010234 -1.60114
RightToes  0.00048216 0.542163 -0.142577
Spine  9.40675 -1.1875 8.69676
Spine1  9.27132 0.8505 -3.44594
HEad  -8.69685 9.72237 -5.95861
LeftShoulder1  8.10985 -12.4654 -44.2189
LeftArm  -15.1575 1.23927 -23.0774
LeftForeArm  25.6281 -37.8271 -7.11614
LeftHand  -0.25398 0.0180481 5.50724
RightShoulder  6.09057 10.5712 37.253
RightArm  -6.55067 -20.0007 34.4085
RightForeArm  21.9857 5.40257 6.28168
RightHand  -0.131162 -4.00397 -8.98765
LeftUpLeg  -1.03516 3.5546 11.1667
LeftLeg  27.4793 3.12741 2.12103
LeftFoot  -6.34647 0.447967 -9.71057
LeftToes  1.06248e-005 4.65855e-005 -8.185e-006
